<svg xmlns="http://www.w3.org/2000/svg" viewBox="0 0 899.71 303.41"><defs><style>.cls-1{fill:#5b85c7;}.cls-2{fill:#e17a39;}.cls-3{fill:#d46a38;}.cls-4{fill:#d46f38;}.cls-5{fill:#476fbd;}.cls-6{fill:#3f66ba;}.cls-7{fill:#476fbe;}.cls-8{fill:#577ec2;}.cls-9{fill:#436bbc;}.cls-10{fill:#4c75c0;}.cls-11{fill:#4f79c3;}.cls-12{fill:#547ec4;}.cls-13{fill:#5680c4;}.cls-14{fill:#537cc6;}.cls-15{fill:#507abe;}.cls-16{fill:#5078c2;}.cls-17{fill:#4f79c2;}.cls-18{fill:#5b87c8;}.cls-19{fill:#d67f35;}.cls-20{fill:#e17f39;}.cls-21{fill:#d78334;}.cls-22{fill:#e28839;}.cls-23{fill:#e38c38;}.cls-24{fill:#e39038;}.cls-25{fill:#e49739;}.cls-26{fill:#d88836;}.cls-27{fill:#d67c36;}.cls-28{fill:#d57835;}.cls-29{fill:#d57437;}.cls-30{fill:#d36539;}.cls-31{fill:#d25f3e;}.cls-32{fill:#d9803d;}.cls-33{fill:#5781c5;}.cls-34{fill:#df7f3a;}.cls-35{fill:#df743a;}.cls-36{fill:#e38937;}.cls-37{fill:#e17e38;}.cls-38{fill:#e28637;}.cls-39{fill:#d36738;}.cls-40{fill:#e06f3b;}.cls-41{fill:#5a85c7;}.cls-42{fill:#436abb;}.cls-43{fill:#4268ba;}.cls-44{fill:#4269ba;}.cls-45{fill:#5983c6;}.cls-46{fill:#426abb;}.cls-47{fill:#527dc3;}.cls-48{fill:#4d77c0;}.cls-49{fill:#5580c5;}.cls-50{fill:#4871bf;}.cls-51{fill:#456ebc;}.cls-52{fill:#4d77c1;}.cls-53{fill:#4f79c4;}.cls-54{fill:#5984c6;}.cls-55{fill:#4c74c1;}.cls-56{fill:#e17938;}.cls-57{fill:#d56f37;}.cls-58{fill:#d36638;}.cls-59{fill:#d2603a;}.cls-60{fill:#d26139;}.cls-61{fill:#4f7ac2;}.cls-62{fill:#e18138;}.cls-63{fill:#e38e37;}.cls-64{fill:#e49236;}.cls-65{fill:#e18038;}.cls-66{fill:#4b74c0;}.cls-67{fill:#5681c5;}.cls-68{fill:#446cbb;}.cls-69{fill:#4f79c1;}.cls-70{fill:#4972c0;}.cls-71{fill:#5884c6;}.cls-72{fill:#456dbc;}.cls-73{fill:#5d88c9;}.cls-74{fill:#5882cf;}.cls-75{fill:#e38b38;}.cls-76{fill:#e28238;}</style></defs><title>bannerRecurso 9pagina35</title><g id="Capa_2" data-name="Capa 2"><g id="Capa_1-2" data-name="Capa 1"><path class="cls-1" d="M110.94,2.76l1.35,1.58c-4.69,2-9.53.3-14.28.6-5.56,0-11.13.36-16.68.1C77.56,4.8,73.77,4.9,70,5c-4,.08-3.3,7.22-8.34,4.76A58.22,58.22,0,0,0,78.74,11a121.06,121.06,0,0,1,13.2.2,8.42,8.42,0,0,1,1.66.33c4.11,1.38,8.53-.41,12.6,1.27.82.63,1.17,1.32.27,2.16-2.25,1.44-4.79,1.12-7.26,1.13-9.94,0-19.89.09-29.84,0-3.88,0-5.94,1.2-5.73,5.39.25,4.86-2.42,9.31-2.13,14.19-.11,5.95.42,11.88.2,17.82-.08,2.29.19,4.65-1.27,6.68-3.56.13-2.42-2.68-2.83-4.52,0-3.36,0-6.72,0-10.08q0-6.21-.05-12.41c.1-1.65.05-3.32.18-5a9.23,9.23,0,0,1,.22-1.49c.72-3.07,1.28-6.14-.28-9.4,0,5.23-5.49,5.71-7.47,9.19A21.34,21.34,0,0,1,51.9,6.25a10.91,10.91,0,0,1,1.85-1.87A17.34,17.34,0,0,1,65.36,1c3.44.11,6.94.42,10.3-.77C84.91-.11,94.16,0,103.41.2a3.36,3.36,0,0,1,2.39,1.39C107.38,2.57,109.19,2.51,110.94,2.76Z"/><path class="cls-2" d="M3,254.48l3-4c3.18-2.8,5.34-6.7,9.31-8.7.87-.43,0-1.82.64-2.62l.81-.79c1.85-.52,4.27.08,4.52-3.17.1-1.21,1.71-2.93,3.19-2.74,3.91.51,5.24-2,6.6-4.79,1.25-2.54,3.78-3,6.14-3.79a13.27,13.27,0,0,0,9.88-6C50.92,212,57.52,210,62.44,205.7c6.88-6,16.32-8.72,21.86-16.56,1.32-1.86,3-3.53,5.33-1.5,2.06,1.81.7,3.62-.64,5.18a11.28,11.28,0,0,0-2.63,4.74A16.38,16.38,0,0,1,84.24,202c-.82,1.42-1.64,2.84-2.4,4.3-1.5,3.45-3.4,6.7-5.06,10.07C76,218,75.35,219.83,73,219.72c-.86-.43-1.61-2-2.41-1.43-4,2.75-9.9,2.53-12.21,7.88-1.46,3.36-5.22,4-7.61,6.19-10.15,9.48-22.9,15.27-33.8,23.75-3.55,2.76-7.3,5.54-11,8.19-1.67.6-3.33,1.53-5,.15C.39,260.87,2.47,257.84,3,254.48Z"/><path class="cls-3" d="M31,285.77l-1.83-.33c-4.21-1.47-8.56-.42-12.84-.68-4.46-.27-8.58-1.11-11.38-5-.72-2.56,1.44-3.4,2.84-4.65,6.26-5.58,12.87-10.73,19.58-15.76a5,5,0,0,1,1.32-.77c4.5-.81,8.79-2.4,13.24-3.39,1.88-.42,3.81-1.06,5.75-.2a1.44,1.44,0,0,1-.16,2.5C40.06,262.66,34,269.63,25.15,273c-3.72,1.43-5.47,5.95-10.36,7.53,3.64,2.17,6.5,1.3,9.2,1.53C26.7,282.58,30.63,280.8,31,285.77Z"/><path class="cls-4" d="M28,260.48c-7,5.52-14,11-20.93,16.6a16.83,16.83,0,0,0-2.2,2.65c-4.8-4.19-5.61-9.42-4-15.28l5.13-1c5.8-2.74,12.24-2.68,18.33-4.14A4.1,4.1,0,0,1,28,260.48Z"/><path class="cls-5" d="M98,3.5c4.76,0,9.55-.33,14.25.84,3.33,1.64,5.5,4.14,5.91,8l-.45.49a2.07,2.07,0,0,1-1.29-.23,8.05,8.05,0,0,1-1.78-2c-3.24-.23-3.13,2.72-4,4.49-.71,1.44-.3,3.28-.27,4.95a21.34,21.34,0,0,1-.19,4.59,3.31,3.31,0,0,1-1.25,2c-2.87-.86-2.17-3.31-2.29-5.31a35.7,35.7,0,0,1,.06-5.94l.15-.81L106,13.39c-4.27-1.24-8.74.43-13-.91h0c-.65-1.11-3.15.29-2.81-1.76.22-1.32,1.8-1,3-.92.55,0-.09-.24-.09-.41.06-3.58,3-1.87,4.53-2.49-1.19-.25-3.38.93-3.49-1.17C94,3.46,96.82,4.47,98,3.5Z"/><path class="cls-6" d="M122.21,62.4c3.93-.19,4,4.42,6.87,5.54l0,.45c3.2,1.77,6.95-.64,10.12,1.35-.08,2-1.86,2.21-3.16,2.62a171,171,0,0,0-16.31,6.29c-3,1.26-5.41,1.17-7.72-1.08-3.18-2.18-3.08-3.81.12-6.34s6.91-5,8.84-9A1.09,1.09,0,0,1,122.21,62.4Z"/><path class="cls-7" d="M122.21,62.4l-1.15.12a17.52,17.52,0,0,1-5.16.27c-3.93-.06-4.84-3-5.76-6-.14-.22-.27-.44-.42-.65a4.64,4.64,0,0,1-.52-1.49,2.81,2.81,0,0,1,1.19-2.84,4.69,4.69,0,0,1,4.77.29c2.1,2.38-.61,6.05,2.22,8.24C119.23,60.48,121.46,59.68,122.21,62.4Z"/><path class="cls-8" d="M117.38,60.36c-4.1-1.64-1.68-5.22-2.35-7.88-1-2.11-.4-4.33-.45-6.51.21-5.62-.27-11.26.28-16.88a3.76,3.76,0,0,1,.8-1.5,1.18,1.18,0,0,1,1.54,0C117.09,38.5,116.63,49.43,117.38,60.36Z"/><path class="cls-9" d="M117.2,27.56,116,27.47c1.34-4.87-.74-10.18,1.91-14.89l.26-.29C119.06,17.46,120.92,22.69,117.2,27.56Z"/><path class="cls-10" d="M60.26,60.41a.85.85,0,0,1,.76.11c1.15,2.07.77,3.1-1.1,5.14-3.26,3.56-8,7-6.51,13.15A85.47,85.47,0,0,1,37.07,93.38c-4.76-.84-4.49-1.06-2.47-4.79,4.2-7.76,11.26-13.8,13.57-22.65-.21-2.42-.24-4.75,2.85-5.42a1,1,0,0,1,.73-.17c2.2-1.06.61-3.6,2-5a2.8,2.8,0,0,1,2.54-.61c.79.53,1.49,1.37,2.63.84C59.33,57.19,58.14,59.28,60.26,60.41Z"/><path class="cls-11" d="M98,3.5,94.62,5.6c1.23,1.6,3.25.25,4.54,1.77-4.13-2-4.57,3.93-8.49,3.2L93,12.48H78c-.78-1-2.34,0-3.2-1.51,2.23-2,3.52-4.88,5.21-7.47Z"/><path class="cls-12" d="M80,3.5C80,6,79.49,8.48,77.4,9.78c-3.17,2,.59,1.79.63,2.7-4.86-.58-9.87,1.17-14.65-1.48-2-1.11-2.3,3.17-4.81,2.59C58.69,8.7,64.31,9,66.43,5.23,68.73,1.1,75.35,4.12,80,3.5Z"/><path class="cls-13" d="M50.94,26.58c.52-2.22-1.46-5.47,3.6-5.51,2.82,0,.85-3.84,1.38-5.87,4.59.89,5.59,4.51,3.1,11.28-1.2,1.11-1,2.63-1.21,4-.37,2.53-1.66,3.34-4,2.17-1.5-1.79.26-5.09-2.84-6.15Z"/><path class="cls-14" d="M54,32.48c1.58,0,2.86,0,2.64-2.35-.13-1.46,0-3.44,2.35-3.65,0,.34,0,.68-.05,1a6.41,6.41,0,0,0-.08,4.92v13c-4.15-1.89.17-5.27-1.33-7.35-.06-.94-.75-.49-.57-.29,1.06,1.23.51,2.66.15,4-1.09,1.26-2.26,1.71-3.61.36C53,38.91,52.25,35.63,54,32.48Z"/><path class="cls-15" d="M57,41.48v-6.1c1.9,4-.13,7.37,1.86,10,0,3.39,0,6.77,0,10.16l-1.41,1.18L57,55.48C54.58,50.81,54.88,46.14,57,41.48Z"/><path class="cls-16" d="M93,12.48c4.32.5,8.79-1.08,13,.92C101.7,13,97.24,14.56,93,12.48Z"/><path class="cls-13" d="M58.89,32.42A3.55,3.55,0,0,1,59,27.5C59,29.14,58.92,30.78,58.89,32.42Z"/><path class="cls-17" d="M51,60.52c-1.29,1.4-2.53,2.82-2,5-.38,1-2.62-1-2.35,1.87.22,2.46-2.15,4.74-3.6,6.93-6.58,9.92-13.16,19.86-20.91,29a5.59,5.59,0,0,0-1.3,3.16,13.55,13.55,0,0,1-6,9.92c-4.24,3-5.26,8.41-8.71,12-1.11,1.16-1.73,3.38-3.58,3.07-2.39-.4-1.24-3.06-2-4.55,0-2.27,0-4.53,0-6.79,6.8-8.51,10.88-18.85,18.41-26.92,3-3.19,4.91-7.42,7.08-11.22,3-5.25,7.44-8.74,11.64-12.65,1.26-.38,2.84-.24,3.23-2,.29-2.69,2.85-3.73,4.13-5.69C47.06,61.29,48.86,59.9,51,60.52Z"/><path class="cls-1" d="M54,32.48v10a13.16,13.16,0,0,1,0,13c-.47,1.76,1.3,4.56-2.28,4.87.12-10.2.26-20.4.29-30.6,0-1.07-.71-2.14-1.1-3.21C55.09,26.9,53.75,30.11,54,32.48Z"/><path class="cls-18" d="M139,70.47c-2.91-2.57-7,.63-9.91-2.08,17.28-1.15,26.69-.45,32.57,2.57-5.13,2.78-9,6.87-12.86,10.87C144.11,86.7,139,87.38,133,86a33.86,33.86,0,0,0-3.92-.5c-1.4-1.77.85-3.07.59-4.69,3.34-2.63,7.2-4.62,9.6-8.4.77-1.22,2.73-.66,4.05-1.45C141.78,71,140.32,71.36,139,70.47Z"/><path class="cls-19" d="M168.11,193.45v21c-1.59,3.78-.08,7.8-1.07,11.72-3.8,15-7.55,30-10.11,45.23-.78,4.65-2.73,9.8-7.42,12.77a24.7,24.7,0,0,1-9-.09c-1.81-2.13.31-3.54.94-5.23,3.8-3.67,5.18-8.2,5.22-13.4a24.41,24.41,0,0,1,2.88-11.91c2.82-5,1.37-10.71,2.62-16,4-4.79,5.05-10.59,5.48-16.56a16,16,0,0,1,2-6.56,27.59,27.59,0,0,0,3-12.86,11.84,11.84,0,0,1,.6-4.76C164.39,195,165.54,193.21,168.11,193.45Z"/><path class="cls-20" d="M168.11,135.63q0,22.91,0,45.81c-2,4-5.75,6.57-8.55,9.93-1.51,1.47-2.38,3.88-5.13,3.54-4.46-3.86-3.34-8.95-2.09-13.39,3.2-11.31,6.75-22.49,8.88-34.09.62-3.4,4.6-5.73,3.49-9.68-1,.85-1.42,2.78-3.41,2.83a2.22,2.22,0,0,1-1.06-1.89c1.37-4.39,2.89-8.66,7.85-10.3l0,0A13.28,13.28,0,0,1,168.11,135.63Z"/><path class="cls-21" d="M150,283.45c1-2.69,1.15-5.61,3.64-7.79,3.82-3.34,2.59-8.48,3-12.64.49-5.4,3.85-9.81,3.91-15.23,0-1.9.43-3.9.48-5.88,0-1-.39-2.26.08-2.93,5.16-7.4,5-16.28,7-24.54q0,10.5,0,21c-1.33,8.06-.31,16.17-.56,24.26-.17,5.5-4,10-4.12,15.44a.51.51,0,0,1-.26.41c-4.31.6-1.47,3.91-2.22,5.86a3.49,3.49,0,0,1-.8,1.23c-1.3.32-2.6-.46-4,.78A4.43,4.43,0,0,1,150,283.45Z"/><path class="cls-22" d="M152.11,122.49c-1.32-3.8-1.72-7.36,2.2-10.07,1.07-.74,2-1.89,1.44-3.36-.71-1.85-2.13-1.42-3.7-1.15-2.1.36-2.16-.84-1.23-2.34.22-2.13,1.75-3.07,3.48-3.82,6.16-2.66,11.61-5.9,11.8-13.73a1.53,1.53,0,0,1,2-1.58v25c-3.29,4-7.5,7-11.55,10.18C155.28,122.66,153.89,123.82,152.11,122.49Z"/><path class="cls-23" d="M168.11,86.44c-.33.55-1,1.13-1,1.64.87,8.23-4.82,11.39-10.9,14.29-1.9.91-4,1.45-5.44,3.2-1.84-6.4-1.76-12.08,4.12-16.87,4.42-3.6,8.09-8.12,12.1-12.22A23.52,23.52,0,0,1,168.11,86.44Z"/><path class="cls-24" d="M168.11,128.39c-3,2.9-5.07,6.48-7.08,10.09-1.32,2.14-2.08,4.61-3.81,6.51-.78.63-1.58,1.1-2.59.49-3.45-6-2.42-11.72,2-16.76,1.6-1.81,4.84-3.5,3.4-7.24-.38-1,.84-2.47,2.06-3.15,1.54-.85,2.42.31,3.32,1.29a21.7,21.7,0,0,0,2.73,2.86C168.14,124.45,168.12,126.42,168.11,128.39Z"/><path class="cls-25" d="M168.15,122.48c-2.93.62-3.86-1.7-5-4.15-1.15,2.07-1.89,3.11-1.59,5.41.28,2-2.51,6.25-3.76,6.49-4.83.94-3.48,4.21-3.73,7a21.29,21.29,0,0,0,1,8.27c.1,2.25-.15,4.23-3.15,4.09a3.21,3.21,0,0,1-.64-2.18,41.45,41.45,0,0,0,.37-5.35c.45-4.84-1.29-10.07,2.51-14.3,1.64-2.55-1.41-2.21-2.07-3.33l.06-1.92c4.87-1.58,8-5.65,11.89-8.54,1.31-1,2.21-2.51,4.11-2.47C168.35,115.14,169.33,118.81,168.15,122.48Z"/><path class="cls-26" d="M160.22,282.71c0-3.06-.06-6.06-5.09-6,7.19,1.16,8.26-2.45,8-7.75-.09-1.84-.22-4.31,2.84-4.94,1.63-.34,1-2.25,1-3.49.05-6.64,0-13.28.05-19.92,0-1.75-.63-3.71,1.05-5.14,0,11.47,0,22.95.16,34.43,0,3.15-1.45,5.74-2.28,8.58l-1.38,1.85-.77.77A2.61,2.61,0,0,1,160.22,282.71Z"/><path class="cls-27" d="M159,190.48a46.34,46.34,0,0,1,9.09-9q0,6,0,12l-4.08,3c-1.83-.6-2.15-2.25-2.64-3.77C161.84,190.68,159.82,191.22,159,190.48Z"/><path class="cls-24" d="M168.11,135.63l0-7.21A8.57,8.57,0,0,1,168.11,135.63Z"/><path class="cls-28" d="M159,190.48l3.69-1.29-.69,3.29c-1.78,8.58-4.25,17-5.88,25.62-1.71,9-5.88,17.32-7.49,26.32-1.76,9.8-5.34,19.11-7.31,28.85-.43,2.18-.73,4.27.68,6.21.12,1.72-1.4,2.61-2,4-.26,1.08-1.6,1.29-1.88,2.36l-2.79,2.76c-.77,1.63-4.16,2.05-2.28,4.9,1,4.16-.59,7.16-4.27,9a7.14,7.14,0,0,1-8.36-1c-2.75-2.39-4.61-5.26-2.45-9.08,2.39,1.72,2.4,5.55,6.19,6.7-1-.77-1.81-.92-2.13-1.62a3,3,0,0,1,.54-2.81c2.73-4.75,5.46-9.48,4.6-15.32a2.68,2.68,0,0,1,.66-2.34c4.15-3.41,3.57-8.18,4-12.77.6-5.61,3.62-10.65,4.17-16.35.53-5.35.56-10.72,4.72-15.26,2.1-2.28,1.86-6.27,1.82-9.61a15.13,15.13,0,0,1,2.71-9.28c2.41-3.47,1.51-8,2.07-12.07a9.55,9.55,0,0,1,7.63-7.19Z"/><path class="cls-29" d="M148,201.48c.08,5,1.8,10.3-2.64,14.39-1.79,1.64-1.23,3.64-1.35,5.56-.37,5.69.17,11.38-5,15.9-2.82,2.48-.77,7-1.49,10.57a81.07,81.07,0,0,1-3,11.35A25.13,25.13,0,0,0,133,269.5c.19,2.76.06,5.27-3,6.69-1.42.66-1.79,2-1.43,3.77,1,5.06-1.61,9.29-3.59,13.65-.59,1.29-2.77,2-2,3.61.9,1.82,3,.34,4.71.91-.79,3.3-4.52.11-5.45,2.6-1.4-2.8-4.71-4.61-4.31-8.33a14.35,14.35,0,0,1,.89-2.26c.83-1.36,3.08-2.27,2.36-4.05-.83-2-3.17-1.32-4.9-1.33q-31.86,0-63.73,0c-2,0-4.06-.31-5.45,1.64a1,1,0,0,1-1.56-.46c-.56-3.76,2.25-3.86,4.64-4a143.56,143.56,0,0,1,14.67,0c5-.31,10,.37,15,.06,4.34-.5,8.68.28,13,0,6-.13,12-.4,18-.08,1.93.14,3.68,1.32,5.63,1.08.73.09.21-1.1.24-.43,0,.24-.13.29-.4.3-.81,0-1.78.29-2.21-.56-.53-1.06.52-1.69,1.19-1.69,4.82,0,4.33-3.86,5.22-6.87,3.48-11.71,5.6-23.73,8.18-35.64A49.69,49.69,0,0,1,133,226.55c2.35-4.71,2.73-9.48,2.92-14.44a6,6,0,0,1,.34-1.45C139.39,206.57,142.69,202.71,148,201.48Z"/><path class="cls-30" d="M31,285.77c-1.7-4-5.24-1.65-7.91-2.32-.26-2.18,2.3-3.17,2.13-5.64-.11-1.51,2.35-1.2,3.8-.91,3.7.73,5.75-.26,7.54-4.13,2.89-6.27,9.53-8.9,15.16-12.22,1.94-1.14,4-1.51,5.24-3.87,1.31-2.51,3.28-2.06,4.35.41a15.77,15.77,0,0,1,.42,11.14c-4.25,5.5-10.33,8.46-16.26,11.63-1.62.86-3.34,1.73-4.26,3.28-1.71,2.88-4.26,3.9-7.37,4.09a9.15,9.15,0,0,1-2-.65Z"/><path class="cls-31" d="M31.75,286.58l2.28-.1c3.3.77,4.91,3.08,4.43,6.21s.62,5.42,3.14,7.81c-2.13-2.42-3.52-4.54-2.34-7.44.48-1.19.11-2.94,1.64-3.4,2-.6,1.58,1.49,2.29,2.38s3.15-.7,3.71,2.08c.22,1.08,2.45,1.89,2.52,2.56-.11-3-.13-3-1.88-5.05-1.29-1.48-3-2.87-1.51-5.16l1.14,0a51,51,0,0,1,3.65,4.7A7.27,7.27,0,0,1,50.2,300a7.77,7.77,0,0,1-8.88,2.86c-3.36-1-6.07-3.45-5.59-6.74C36.36,291.73,34.12,289.3,31.75,286.58Z"/><path class="cls-26" d="M160.16,282.67c-2.9,2.61-6.5,1.84-9.91,2.08s-6.93-.71-10.27.71l-1.83.35a1.87,1.87,0,0,1,1.88-2.36h10c2.28.07,4.72.36,6.46-1.45S159,282.33,160.16,282.67Z"/><path class="cls-32" d="M133.08,293.47c-2.7-2.07-2.65-2.17,2.27-4.9C134.68,290.24,133,291.43,133.08,293.47Z"/><path class="cls-33" d="M51.93,160.42a23.09,23.09,0,0,0-6,5.94c-2.15,3.56-5.22,6.35-8,9.41-.47.49-1,.95-1.44,1.41-1.65,1.43-3,3.31-5.51,3.35-4.88,1.85-9.68,4.32-15.12,2.06.09-.17.18-.35.26-.53.81-1,.52-2.38,1.34-3.36a7.64,7.64,0,0,1,4.54-3.06c4.72-.84,7-4.64,9.63-8a48.52,48.52,0,0,1,13.9-11.51,7.2,7.2,0,0,0,5.26-3.39c1.76-2.54,4.11-3.85,7.3-2.68a3,3,0,0,1,1.48,2.35C58.4,156.38,55.55,158.78,51.93,160.42Z"/><path class="cls-34" d="M37,224.48c-2.31,1.8-5.07,2.84-6.21,6.27-.51,1.52-2.62,5.47-6.43,2.56-.72-.54-2.35,1.15-2.58,2.43-.85,4.78-.78,4.79-5.1,2.61l6.28-7c3.14-3.57,6.55-6.9,9.5-10.66,2.62-1.94,4-5.61,8-5.58,3.42,1.94,3.08,4.23.65,6.75A9.42,9.42,0,0,1,37,224.48Z"/><path class="cls-34" d="M15.9,239.14c-.06,1.68,1.38,2.3,2.71,3.36-6.83-1-7.68,6.64-12.66,8C8,245.61,12.2,242.58,15.9,239.14Z"/><path class="cls-33" d="M15.93,182.59c-3.93-.43-7.32-1.9-9.75-5.17a1.56,1.56,0,0,1,1.32-1.36,2.81,2.81,0,0,1,1.28.42c1.87,2.66,6.79,1.57,7.31,5.92Z"/><path class="cls-12" d="M7,176.48l-.85.94-3.25-2.94-.87-3c2.59-.48,3,2,4.3,3.2A3.11,3.11,0,0,1,7,176.48Z"/><path class="cls-35" d="M28,260.48c-7.43.27-14.45,3.55-22,3,3.93-6.71,11.41-9,17.16-13.35,8.53-6.47,18.24-11.3,26.33-18.5,3.34-3,7.93-4.42,9.81-9.2.74-1.88,3.39-2.54,5.55-2.91,1.35-.24,2.78-.47,3.56-1.58,3.39-4.82,4.09-2,4.59,1.54a1.91,1.91,0,0,1,.56,1.93,7.87,7.87,0,0,1-.91,1.92c-1.93,1.84-1.25,5.66-4.74,6.31-.39-.23-1.16-.75-1.19-.56-.65,4.19-4.37,5.41-7.1,7.67C51.8,243.24,42.5,248,36.15,256.28c-2,2.59-5.54,1.79-8.12,3.2Z"/><path class="cls-36" d="M152,149.47c2.09-.51,1.63-3,3-4l2-1,.43.54c.38,2.26-1.33,3.88-1.78,5.89-3.45,5.11-5.21,11.28-9.78,15.7-8.07,5.76-14.88,13.16-23.93,17.71-6.23,3.14-11.36,8.11-16.85,12.35-7.72,6-17.2,9.69-23.3,17.79-.88,1.17-2.4,2.3-3.83.91-1.08-1-.56-2.55.37-3.61,1.6-1.82,2-4.08,2.67-6.28l2-4c1.71-.94,2.79-2.26,2.57-4.34,1.47-2.29,2.08-5.38,5.49-5.83a2.71,2.71,0,0,1,.41,2.43c3.42-3.42,8-4.89,11.63-8,8.79-7.6,18.88-13.43,28.35-20.1a22.86,22.86,0,0,0,4.81-4.29,15.89,15.89,0,0,1,8.66-5.55c2-.5,3.9-1,4.67-3.23a7.52,7.52,0,0,1,.73-1.93A2.39,2.39,0,0,1,152,149.47Z"/><path class="cls-37" d="M91,191.47c-2.56,1.26-3.4,4-5,6-.33.47-.66.47-1,0,.26-2.67,1.94-4.5,3.73-6.27,1.11-1.1,1.5-2.3-.1-3.25-1.28-.76-1.88,0-2.7,1.11-3.78,5.09-7.88,9.76-14.47,11.5-3.78,1-5.83,4.79-9.06,6.93-5.16,3.44-11.31,6.06-15.09,11.9-1.93,3-5.18,6.89-10.31,5.08.85-1,1.51-2.28,2.57-2.94,3.17-2,2.87-4,.38-6.22a2.62,2.62,0,0,1,.83-2.72c5-4.7,9.32-10.24,15.31-13.89,5.58,1.42,8.61,0,10.88-5.39.94-2.24,1.92-3.87,4.69-3.25s4.44-.87,5.75-3a19,19,0,0,1,9.47-7.71c5.47-2.2,10-5.83,14.16-10,1.08-1.08,1.91-3.36,3.9-1.9,1.69,1.22.69,3,0,4.51a13.85,13.85,0,0,0-.62,1.36,6.33,6.33,0,0,1-.68,1.15c-1,1.08-2.29,2-2.93,3.4a59.32,59.32,0,0,1-3.94,6c-1.83,1.58-2.65,3.82-3.85,5.81A4.42,4.42,0,0,1,91,191.47Z"/><path class="cls-38" d="M81,205.48c.35,2.86-.92,5.14-2.53,7.35-.51.7-.57,1.69.37,2.07.4.17,1.3-.27,1.65-.7,8.6-10.42,21.32-15.43,31.31-23.91,6.87-5.84,15.43-9.09,21.73-15.19,3.65-3.52,8.21-5.78,11.47-9.62,1.72,4.9-1.94,7.94-4,11.55-3.37,6-10,8-15,12-8.19,6.4-17.47,11.37-25.19,18.38-3.4,3.08-7.46,4.94-11.19,7.38-2.89,1.89-5.75,3.52-8.07,6.33-3,3.58-6.56,3.39-8.57.38v-2C76.77,215.43,78,210,81,205.48Z"/><path class="cls-38" d="M85,197.48h1c.09,2.15-.43,3.84-3,4C83.61,200.1,85.15,199.2,85,197.48Z"/><path class="cls-39" d="M61,268.48c-.3-4.18,1-8.6-1.7-12.46a2.47,2.47,0,0,0-2.1,2.58c-.18,2.28-.3,3-3.36,2.74-4.85-.35-7.47,4.8-11.49,7-2.88,1.54-5.12,3.78-5.59,7.68s-4.22,1.93-6.57,2.55c-1.4.37-5.6-3.87-4,2.27.22.86-2.72.94-3.15,2.66-1.82,0-3.64,0-5.47,0-1.6,0-3.49-.47-3.54-2a3.72,3.72,0,0,1,2.87-4c2.33-.42,4.07-1.23,4.33-3.92a2.29,2.29,0,0,1,2-2c8.31-1.68,14-7.19,19.46-13.14,1.46-1.6,4.49-.39,5.35-3,4.55-3.4,9.34-5.95,15.3-4.13,1.48,3-.09,6.06.15,9.09,0,2.79.41,5.62-.66,8.33a1.76,1.76,0,0,1-1.29,1A.78.78,0,0,1,61,268.48Z"/><path class="cls-40" d="M63,251.48c-5.36,0-9.89,3.06-15,4-6.85.4-13.05,4.1-20,4,8.72-3.81,13.83-12.17,21.62-17.18,4.29-2.76,8.24-6.05,12.54-8.8,1.86-1.2,3.07-2.28,2.89-4.64-.09-1.19-.44-3.17,1.5-3,2.16.17,1.18,2.3,1.45,3.63.74,1.25.12,2.4-.27,3.57-1.62,2.64-1.4,5.57-1.34,8.48s-1.11,5.46-2,8.1A3.54,3.54,0,0,1,63,251.48Z"/><path class="cls-41" d="M40.93,67.26c.14,2.16-1.37,2.23-2.9,2.27C34.6,71.66,30.79,71,27.08,71c-4.65-.89-7.65.81-10,5-3.26,5.75-7.57,10.87-12,15.81-2.48,2.79-2.71,5.9-2.63,9.26,0,1.82,0,3.64,0,5.48,0,4.36,1.07,8.82-1.34,12.92v8c.35,3.35,1.82,6.54,1.39,10,.29,4.61.18,9.23.1,13.85-.39,4.94.7,9.93-.56,14.83a3.15,3.15,0,0,1-1.15,1.45c-1.23-1.8-.86-3.85-.86-5.81q0-37.68.08-75.34C.16,74.32,6,68.45,18.21,68.38c5.83,0,11.65,0,17.47,0C37.51,68.35,39.36,68.47,40.93,67.26Z"/><path class="cls-42" d="M.91,167.67l.31-1.23a13.88,13.88,0,0,1,6.32-6.86c2.15-.71,3.48-2.43,4.88-4.05a2.92,2.92,0,0,1,1.17-.61c1.6.08,2.71-1,4-1.61,1.55-.72,3.24-1.31,3.7,1.31-4.46,6.28-8.72,12.7-13.07,19A3.51,3.51,0,0,1,6,175.46q-2-2-4-4A5.85,5.85,0,0,1,.91,167.67Z"/><path class="cls-43" d="M117.94,12.58c0,3.42-.06,6.83.13,10.24a5.4,5.4,0,0,1-2,4.65h0a75.74,75.74,0,0,0,0,19c.07,2.07.23,4.16-1,6l-4.81,0c-1.51-6.57-.27-13.23-.68-19.82-.65-1.68,1.55-3.13.37-4.85a2.44,2.44,0,0,1-.86-1.36V24.48a14.37,14.37,0,0,0,1.85-2.26c2-2.77,3.58-2.41,4.82.81.28.41.73-.54.2-.14-.18.14-.28,0-.43-.24-.59-1-.49-2.21-.75-3.32A12.09,12.09,0,0,1,116,13.54,2.79,2.79,0,0,1,117,12.48,5.51,5.51,0,0,1,117.94,12.58Z"/><path class="cls-9" d="M117,13.48c-.34,2-1.34,3.89-1,6-2.33-.35-4.66,1.69-7,0C107.56,15,111.55,11.93,112.22,8c.27-1.55,1.53-1,3.81,2.52C115,12,114.55,13.19,117,13.48Z"/><path class="cls-8" d="M109.05,26.41l1,1c.85,1,.58,2,.1,3q0,11,0,22c-.08,1-.17,2.07-.25,3.11-1.61-6.63,0-13.4-.87-20.07,1.21-7.19-3.83-13.73-2.19-21,2.09,1.83.8,4.26,1.15,6.4C108.35,22.75,107.34,24.82,109.05,26.41Z"/><path class="cls-44" d="M109,19.48c2.33.44,4.66-2.81,7,0v3.9c-2.32.7-1.47-1.91-2.92-2.18-1.36.94-1.22,4.07-4.07,3.28Z"/><path class="cls-44" d="M117,13.48l-5.3,2.4c1.89-2.58,1.76-4.89,4.3-5.4.33.66.67,1.33,1,2Z"/><path class="cls-45" d="M139,70.47c2.3-1,4.71-.65,7.57-1-.92,2.18-2.51,2.52-4,2.87-2.64.62-5,1.1-4.77,4.84.13,1.83-2.13,3.23-3.46,2.47-2.13-1.21-2.91,1-4.42.92H130c-3.1-2.46-4.8-.79-6.1,2.07a3.58,3.58,0,0,1-2.07,1.67c-2.11-.27-4.22-.55-6.33-.81s-3.3-.33-2-3.23-1.3-3-3.41-2.7c-.35-1.83.74-1.63,1.9-1.34,4.35,4,8.29.62,12.15-.92C129,73.4,133.78,71.37,139,70.47Z"/><path class="cls-46" d="M112,76.27c-.81.2-1.59.44-1.9,1.34-2.1,2.48-4.08,5.23-8,3.85-1.06-1-3.11.07-3.73-1.82-.4-1.37-.28-2.79.91-3.56,5.26-3.4,8.59-9,14.06-12.13A5.58,5.58,0,0,0,116,61.48c1.7.22,3.63-.64,5,1-.09,1.16,1.12,2.81-.79,3.33-4,1.09-4.26,6.44-8.83,7.25C109.11,73.51,111,75.27,112,76.27Z"/><path class="cls-5" d="M116,61.48c1.35,2.35.39,3.15-2,3a16.9,16.9,0,0,1-7-2.71,1,1,0,0,1,0-1.25l1.82-.12c1.29-1.4.6-3.67,2.19-4.93C112.84,57.36,111.09,62.2,116,61.48Z"/><path class="cls-8" d="M111,55.47c-1.06,1.5.54,4.18-2.19,4.93.35-1.62.71-3.24,1.06-4.85Z"/><path class="cls-44" d="M116,46.45a38.91,38.91,0,0,1,0-19Q116,37,116,46.45Z"/><path class="cls-47" d="M92,60.5h9c.28,1.33-.74,1.64-1.62,2.07-3,.36-5.31,2.44-7.08,4.3-5.17,5.44-11.58,9.36-16.84,14.68C66.08,91.07,55.64,99.49,46,108.77c-10.49,10.11-21.75,19.35-32.67,29-1.51,1.33-2.81,3.27-4.75.58A3.76,3.76,0,0,1,8.34,137a14.05,14.05,0,0,1,1.85-5.09,3.4,3.4,0,0,1,1.05-.87,7.63,7.63,0,0,1,1.33-.34,6.24,6.24,0,0,0,3.9-2.07c9.06-10.24,20.1-18.37,29.68-28.08,7.57-7.66,16-14.45,24.14-21.56a9.91,9.91,0,0,0,3.3-4.26c.69-3.36,3.87-3.86,6.23-5C84.49,67.35,86.65,61.78,92,60.5Z"/><path class="cls-48" d="M99,61.48a2.16,2.16,0,0,0,2-1h6v1c1.36,1.39,2.09,2.79.06,4.23-1.87-.85-3.12-.08-4.65,1.16-4.56,3.71-8.6,8.09-13.86,10.9-6.16,7.16-15,11.35-20.69,19.07a21,21,0,0,1-1.43,1.55c-5.11,5.85-12.14,9.45-17.48,15.06-1.48,1.56-3.57,3-6.17,2-1.08-2.92,1.18-4.31,2.85-5.76C60.35,97.05,74,83.27,88.61,70.46,92.05,67.43,96.17,65.16,99,61.48Z"/><path class="cls-49" d="M92,60.5C87,64.73,83.3,70.79,76.38,72.64c-1.5.4-1.26,1.72-1.35,2.84-7.28,5.16-13,12-20,17.54-1.53,1.2-2.7,3.15-5.08,1.75a2.67,2.67,0,0,1-.64-2.06A2.4,2.4,0,0,1,50.5,91c3.89-2.31,6.78-5.68,9.63-9.09,5.93-4.5,11-9.9,16.33-15.09.93-.91,2.2-1.52,2.29-3.06,1.55-3,4.86-2.16,7.27-3.29Z"/><path class="cls-50" d="M53,78.48c-1.76-2.28-3.34-5,0-6.78,2.39-1.28,2.9-3.32,3.94-5.22.61-1.11.24-2.53,2.61-2.23,3.58.45-1.24-3.3,1.47-3.73h7c2.37,3.84.68,6.56-2.54,8.72-1,.7-2.7.7-2.11,2.64C61,75.67,57.89,78.48,53,78.48Z"/><path class="cls-51" d="M63.05,71.49c-.78-.1-2,.28-2.18-.62-.22-1.05.88-1.93,1.77-2,5.28-.59,5.48-4.34,5.39-8.32l18,0c-2.08,1.77-5.18,1.74-7,4-3.41,3.65-8.52,4.11-12.49,6.7C65.4,71.6,64.28,72.18,63.05,71.49Z"/><path class="cls-52" d="M1.15,137.49c0-3.32,0-6.63,0-10L2.69,131c2.28-3.74,5.37-6.61,6.87-10.6a10.63,10.63,0,0,1,4.09-4.94c3.77-2.56,6.41-5.5,5.57-10.49-.11-.64.52-1.55,1-2.15,7-8.15,13.78-16.45,19-26,2.2-4,5.76-7.19,7-11.92.34-1.33,1.68,1,2.77.53C48,70,47.19,74.65,43.41,77.8c-4.21,3.51-4.84,9.36-9,13C32.72,92.29,36,92,37,92.48c.69,1.77-.58,2.82-1.59,3.78A92.44,92.44,0,0,0,27.16,106a19.63,19.63,0,0,0-3.35,4.72,25.56,25.56,0,0,1-1.3,2.27c-2.21,2.78-3.56,6.09-5.56,9-.91,1.56-1.54,3.36-3.39,4.15-3.25,1.36-4.06,4.45-5.28,7.3C7,136.56,4.85,138.47,1.15,137.49Z"/><path class="cls-18" d="M26,105.48c3-4.86,7.44-8.57,11-13l16-14c3.55-2,7.19-3.92,10-7l3-1c1.27-.71,2.59-1.06,3.29.6C69.86,72.33,69,73.34,68,74a52,52,0,0,0-6.68,4.26c-1.33,1.15-2.47,2.23-1.77,4.18-1.39,3.16-4.92,4.12-6.9,6.68-1.83,1.24-4.85,1.34-4.46,4.7-4.93,3-9.46,6.43-13,11.17-2.78,3.67-7.2,5.72-10.58,8.88-1.18,1.1-3.19,1.85-2.52-1.38a2.12,2.12,0,0,1,1-2A15.24,15.24,0,0,0,26,105.48Z"/><path class="cls-53" d="M54,55.48v-13l3-1v14Z"/><path class="cls-12" d="M26,69.53H38c-2,2.8-4,5.63-7,7.5-3.54,2.19-4.4,6.5-6.31,9.63C21.34,92.14,16.6,96.49,13.56,102c-3.14,5.67-6.23,11.28-10.41,16.25a3.14,3.14,0,0,1-2,1.27q0-7,0-14c4.73-3.72,5.47-10,9.43-14.34C16.56,84.62,19.47,75.75,26,69.53Z"/><path class="cls-12" d="M22,176.48l-4,3c-3.39.53-4.34-1.95-5.38-4.34,2-4.33,5.74-7.4,9-10.53,5.47-5.28,9.92-11.45,15.79-16.43,5.49-4.66,9.74-10.79,14.54-16.27a220.38,220.38,0,0,1,17.08-17.37c4-3.7,8.34-7.41,10.49-12.92,1.13-2.87,4.44-4.31,6.35-6.8a13,13,0,0,1,4-3.34c2-1.1.65-2-.09-2.9a1.42,1.42,0,0,1,.28-1.27,14.89,14.89,0,0,1,7,3c.8,1.2,2.52,1.22,3.27,2.5-1.57,8.44-5.17,13-11.15,14-4.49-.53-5.47,2.1-5.26,5.81a4.18,4.18,0,0,1-.54,2,86.86,86.86,0,0,0-12.08,8.49,24.48,24.48,0,0,0-7.47,10.64,4.34,4.34,0,0,1-.62,1.28c-7.07,2.48-10.84,9.47-17.36,12.73-1.23.62-1.48,2.14-1.94,3.37-.6,1.58-1.31,3.48-2.89,3.87-6.64,1.64-8.87,8.59-14.35,11.58-1.74.95-2,2.93-2.23,4.77C24.24,173.37,24.17,175.41,22,176.48Z"/><path class="cls-49" d="M83,114.48v-2c1.2-3,3.49-5.1,6-7,3.53-.3,9.06-5.4,9.34-9.26A5.14,5.14,0,0,1,100,92.51c2.34.45,4.1,2.19,6.35,2.84l2.63.22c.14,2.13.66,4.42-2.2,5.31.44.33,1.1,0,1.49.53a2.15,2.15,0,0,1,.16,2c-5.6,3-10.63,6.56-13.25,12.72-1,2.3-4.23.82-5.5,2.87a2.18,2.18,0,0,1-1.58,1,2.07,2.07,0,0,0-2.08.57c.71.2,1.31-.61,2-.23a2.31,2.31,0,0,1,.56,1.25c-.78,3.89-3,6.87-5.86,9.5a13.65,13.65,0,0,1-3.42,2.46c-4.8,1.74-7.2,6.91-12.13,8.47-3.92.34-5.83,2.74-6.5,6.4a3.57,3.57,0,0,1-2.7,2.11c-3.11.33-5.87,1-7.1,4.51-.74,2.14-3.11,1.93-4.9,2.49-3.66-3.17-.5-5.28,1.27-7.42C52,144.34,56.48,138.35,63,134.48v-1a7.51,7.51,0,0,1,2.64-3.55C71.8,125.17,76.18,118.44,83,114.48Z"/><path class="cls-54" d="M89,118.48l-.22-1.42c6.62-.24,7.44-7,11.47-10.27a13.56,13.56,0,0,1,7.75-3.31c1-.67,1-1.34,0-2h-2.84c3.91-.37,1.29-4.88,3.82-5.91,3.29.1,5.84,2.48,9,2.93h0a8.7,8.7,0,0,1,.92,1.09c1.28,5-.41,8.92-5.66,11.73-2.69,1.44-4.48,3.17-5.31,6.15-1.06,3.79-5,3.44-7.42,3.44C96.72,120.88,92.6,120.53,89,118.48Z"/><path class="cls-55" d="M90.08,87.31l0,1.16a2,2,0,0,1-1.28.46c-6.54-1.83-10.11-.61-14.47,5.17C72.35,96.66,70.53,99,67,96.48c5-5.3,8.63-12.1,16.46-14-1.35-2,3.92-.76,1.69-3.83-1.24-1.72,2.23-.86,2.85-2.14,1.07.66,2,1.44,1.75,2.88-.19,1-1.06,1.55-1.76,2.18C84.53,85,87.59,86,90.08,87.31Z"/><path class="cls-54" d="M106.37,95.35c-2.87.75-4.81-.61-6.35-2.84a3,3,0,0,1-3-2.17C100.32,91.73,104.36,91.65,106.37,95.35Z"/><path class="cls-48" d="M88,81.54l1-2.07A5.73,5.73,0,0,1,93.14,78c2.08,0,4.2-.16,5.89,1.44l3,2C97.36,82.06,92.68,79.13,88,81.54Z"/><path class="cls-18" d="M123,82.49c2.13-4.77,3.56-5.16,6.94-1.88a5.49,5.49,0,0,0-1,.06,3.26,3.26,0,0,0-2.92,0C125.08,81.28,124.85,83.17,123,82.49Z"/><path class="cls-27" d="M142,279.48c-3.12.29-3.54-.34-2.88-3.84a112.42,112.42,0,0,1,4.25-16.58c3.17-9,3.59-18.53,7.35-27.35s5.19-18.75,7.05-28.3c.77-4,2.58-7.39,4.23-10.93l2,4v5c-3.53,5.61-4.19,12.19-5.85,18.38-1.59,5.92-3.07,11.85-5.15,17.62,1.41,8.34-1.9,15.82-4.34,23.44-.73,2.3-.57,4.57-.66,6.87C147.83,272.61,146.64,276.92,142,279.48Z"/><path class="cls-27" d="M153,237.48c-.45-6,2.38-11.21,3.75-16.77,1.15-4.63,2.43-9.24,3.15-13.94.43-2.77,1-4.84,4.1-5.29a25.64,25.64,0,0,1-3.81,14.69c-2.19,3.41-1.25,7.46-1.92,11.17C157.56,231.5,156.52,235,153,237.48Z"/><path class="cls-56" d="M140,176.48c2.18-3.44,4.33-6.88,5-11,4.92-3.94,5.59-10.72,10-15,2.12-3,2.95-6.8,5.38-9.67l.62-.33c2.66-1.76,2.37-5.79,6.08-7.76a30.61,30.61,0,0,0-1.11,9.83c0,.65,0,1.66-.36,1.89-4.77,2.94-3.5,8.08-4.7,12.34-2.25,8-4.77,15.95-7,24-1.29,4.64-2.22,9.38,1.08,13.73-2.47,2.2-5.24,4.09-7,7l-11,9c-2.8.06-2.36-1.63-1.77-3.34a187.11,187.11,0,0,0,7.09-29.24c-.92,2.95-1.5,6.17-5.43,6.7-1.18-1.51-.66-2.85.54-4A11,11,0,0,0,140,176.48Z"/><path class="cls-36" d="M157,144.48a7.69,7.69,0,0,1,4-6v2c-1.53,1.13-1.06,4.26-4,4Z"/><path class="cls-57" d="M62,269.48v-9c13.58-6.74,25-16.58,37-25.62,1.8-2.89,5.16-3.32,7.76-5,4.31-2.7,8.53-5.52,12.81-8.27a86.54,86.54,0,0,1,14.31-9.32c1-.5,1.87-1.37,3.14-.84-.05,5-.12,9.59-2.3,14.66-4,9.36-7.71,19.18-7.68,29.74,0,2.19.08,4.46-1.41,6.17-3.52,4.05-2.43,9.36-4,13.95-.47,1.39-3.53,3.57.39,5.38H115c.75,1.8,2.58.35,3.09,2.07h-6c-1.53-2.29-1.11-4.95-1.39-7.48-.14-4,1.06-7.79,1.26-11.72,1-7.13,3.7-14,3.62-22.2-9.17,7-18.87,11.84-26.64,19.37a35,35,0,0,1-8.2,5.59c-4.09,2.19-8.13,4.59-11.38,8-1.73,1.82-3.51,3.18-6.07,1.46a4.5,4.5,0,0,1-.91-1.17C61.74,273.39,61.14,271.47,62,269.48Z"/><path class="cls-3" d="M63,275.48c1.52.75,3.09,1.62,4.46-.17,3.93-5.17,9.6-7.8,15.14-10.74,5.23-2.77,9.13-7.44,13.82-11,3.45-2.62,7.25-4.53,10.72-7,2.16-1.55,4.55-2.71,5.92-5.14.5-.88,1.11-1.79,2.3-1.45,1.34.38,1.54,1.58,1.63,2.78a22.73,22.73,0,0,1-.89,7.37c-1.15,4.43-2.08,8.92-3.1,13.38a3.32,3.32,0,0,1-1.15-2.13c-1.06-5.15-1.5-5.33-6-2.37-8.73,5.75-16.27,13-24.71,19.15-2.31,1.68-4.42,2.78-7.29,2.2,2,1.29,6.28-2.33,6.15,3.11H65C62.07,281.36,61,278.8,63,275.48Z"/><path class="cls-58" d="M80,283.44c-1.64-4.14-5.49-.52-8.15-2.8,3.18-1.38,6.57-2,9.5-4.21,7.27-5.42,13.67-11.91,21.36-16.83,3-1.91,6-5.49,9.21-4.36,2.6.91.63,5.39,1.08,8.24q-.5,6.5-1,13c-2.88,0-1.58-2.78-2.87-4.13-1.73,4.15-6.24,3.5-9,5.39a15.53,15.53,0,0,1-9,3.08c1.75-.23,3.45-.9,4.91,1-.31,1.85-2.35.61-3.07,1.63Z"/><path class="cls-59" d="M63,275.48c-.22,2.87.9,5.42,2,8-5.06,0-10.12.06-15.18,0-2.15,0-4,.12-3.81,3A5.7,5.7,0,0,0,48,290.38c3.49,3.14,2.51,6.25-.19,10.26-.67-2.87,2.64-4.42.63-6.57-2.12-.13-1.11,3.13-3.32,3-.9-1.36,1.85-2.38.34-4-2-.77-1.42,2.28-3.24,2.28-.1-1.62-.2-3.32-.34-5.59-2.08,5.68-2.08,5.68,2.27,9.51a1.35,1.35,0,0,1,.45,1.75c-.47.92-1.23,1-2.1.58-3.11-1.33-5.86-3.49-5.26-7,.65-3.72-.9-5.94-3.18-8.19,6.14-2.76,10-9,16.56-11,4.25-1.34,6.25-5.74,10.44-7v1c1.5,1.72,1,4.09,2,6Z"/><path class="cls-35" d="M137,211.48l-17,11a3.21,3.21,0,0,1,.36-3.29c3.54-6,5.35-12.74,8.6-18.85a52.29,52.29,0,0,0,3-8.05c1.6-2.65,1.74-6.25,5-7.81,2.36-2.26,3.93-5.07,5.59-7.95.29,5.8.61,11.38-2.58,16.77-1.43,2.43.08,5.89-1.57,8.83-1.05,1.86-.68,4.4-2.55,6.18-1,1,.26,1.66,1.11,2.17Z"/><path class="cls-60" d="M93.05,283.45l2.35-1.77-7.29-.42v-.48l2.83-.45a54.14,54.14,0,0,1,5.35-.86c2.72-.18,1.27-1.74,1.1-2.9,2.62,0,6-2.23,6.93-1.94,3.65,1.12,2.38-1.67,3.07-2.78s.94-3,2.43-2.82c1.85.19,1,2.08,1.2,3.28.18,1.43-.37,3,1,4.17-.2,2.32.86,4.65,0,7Z"/><path class="cls-12" d="M63,134.48c-.29.76-.37,2-.9,2.21-6.52,3-9,9.91-14.08,14.35-1.85,1.63-3.73,3.55-2,6.44-4.58,3.33-9.53,6.15-13.13,10.76-2.85,3.65-4.95,8.54-10.87,8.24.06-7.63,4.92-12,10.23-16.6,2.35-2,3.18-5.7,7.34-5.27a2,2,0,0,0,1.59-1.05c1.25-5.12,5.63-7.19,9.06-10.46C54.16,139.38,57.81,136,63,134.48Z"/><path class="cls-1" d="M79,132.47a227.06,227.06,0,0,1-20,20l-1-2,2-2a24.19,24.19,0,0,1,7-7C71.3,138.84,73.93,134,79,132.47Z"/><path class="cls-12" d="M13,175.48a15.76,15.76,0,0,1,5,4c-1.17.62,1.35,3.71-1.94,2.92-1.79-3.2-7-1.71-8.06-5.92C9.61,175.74,11.15,174.76,13,175.48Z"/><path class="cls-61" d="M13,175.48c-1.61.61-3,2.19-5,1H7l-1-1c4.59-7.29,8.39-15.15,15-21,2.26-6.08,7.15-10.12,11.36-14.7,10.44-10.3,20.58-20.91,31.76-30.44,5.87-5.63,13.16-9.25,19.69-14a2.37,2.37,0,0,1,3.19.1c-2.67,1.46-2.73,5.82-6.61,5.93,1.61,5.15-3.65,5.95-5.67,8.75C70.06,116.64,63.12,121,58,127.06q-8.24,9.66-16.48,19.3a7.56,7.56,0,0,1-1,1.12C30.2,155.69,22.55,166.51,13,175.48Z"/><path class="cls-62" d="M137,184.48l-4,8a54.7,54.7,0,0,1-15,12.84c-9,5-16.24,12.08-24.54,17.82-5.72,4-12,7.2-17,12.15A5.72,5.72,0,0,1,71.06,237c-2.91-.57-4.08-2.09-3-4.94,1.25-3.23,2.59-6.42,4-9.6l1-1c3.1,3.34,6.88.46,7.55-1.16,2.1-5,7-6,10.63-8,6.64-3.63,11.35-9.62,17.78-13.17,9-5,16-12.85,25.53-17.1,2.45-1.1,3.72-3.68,5.51-5.6C140.77,179.8,136.29,181.16,137,184.48Z"/><path class="cls-37" d="M72,222.48c0,3.44-2.53,6.12-2.85,9.42-.11,1.09-1.53,2.85.43,3.37,1.57.42,3.25,1.73,5.09,0,10.72-9.77,23.37-17,34.69-26,4.85-3.88,10-8.18,16-10.81,1.32-.59,1.43-1.66,2-2.57,1.33-2,2.85-3.72,5.59-3.43,0,3-1.63,5.47-3,8-6.31,11.22-17.37,17.1-27.18,24.48-10.42,7.84-22.21,13.82-31.48,23.22-2.68,1.06-4.9,5.12-8.34,1.3.37-2.74,2.61-5,2-8,.94-2.94.4-6.21,2-9,.33-1,.67-2,1-3C69.83,227.41,69.78,224.28,72,222.48Z"/><path class="cls-63" d="M91,191.47a2.11,2.11,0,0,1,1-2c2.35-1.32,2.45-4.15,4-6a20.92,20.92,0,0,1,4-6,8.88,8.88,0,0,1,3-3v-1c2.76-2.45,3.14-6.9,7-8.4a2.43,2.43,0,0,1,1.34.31c2.15,2,3.92.8,5.64-.69,2.74-2.37,5.65-4.63,8.17-7.14,4.33-4.3,10.3-5.77,14.86-9.63,2.29-1.94,5.54-1.94,6.71,1.84.74,2.35,3,1.56,4.23,2.71-.7,2.54-1.72,4.36-5,4.35a10.2,10.2,0,0,0-7.39,3.69C131.2,169.16,121,174,111.81,180.2a66.64,66.64,0,0,0-8.6,7.18c-3.68,3.56-9.76,3.76-11.91,9.08a1,1,0,0,1-1.65.33,2,2,0,0,1-.23-1.77C89.89,193.82,91.1,192.94,91,191.47Z"/><path class="cls-64" d="M151,152.48c-1.86.07-3.64.1-4.55-2.07-1.66-3.94-4.6-3.12-6.7-1-4.41,4.52-10.93,5.63-15.33,10.41-2.3,2.5-4.85,5.29-8,7.14-2.27,1.34-4.91,3.5-5.47-1.52-.35-3.86,3.77-4.86,4.92-7.76a9.73,9.73,0,0,1,.81-1.1c1.61-1.85,3.56-3.39,4.93-5.46a11.79,11.79,0,0,1,.76-1.09,36,36,0,0,1,2.76-2.9,12.25,12.25,0,0,1,1-.92,62.16,62.16,0,0,1,7.86-7.44,12,12,0,0,0,5.07-8.14,2.81,2.81,0,0,1,.87-1.09l.69,0c2.22,3.39,3.14,7.28,4.28,11.08.37,2.39.75,4.77,2.22,6.8,0,2.62,1,4,3.84,3Z"/><path class="cls-20" d="M157,144.48c1.34-1.33,2.67-2.67,4-4a23.24,23.24,0,0,1-6,10C154.45,148.06,157,146.68,157,144.48Z"/><path class="cls-65" d="M123,150.48v1a22.53,22.53,0,0,0-6,6h0c-1.94,3-5.08,5-7,8-2.36,2.64-3.71,6.17-7,8-.34-2,2.67-3.12,1.4-5.75a48.71,48.71,0,0,1-19.74,14.06c-2.83,1.06-4.42,3.65-6.12,6.14s-3.37,5.72-7.5,3.26c-2.11-1.26-2.48.3-2.56,2.06-.22,5.16-5.24,5.95-8.18,8.52-1.61,1.4-2.24-2.62-4.34-2.31a56.51,56.51,0,0,1,10-10c4-1.51,5.33-7,10.43-6.82a1,1,0,0,0,.94-1c-.3-4.88,4.52-6.14,6.63-9.32a4,4,0,0,1,4.21-2.08,2.6,2.6,0,0,0,2.38-.5c5.62-6.28,14.62-7.88,19.88-15a29,29,0,0,1,12.41-9.59c1.43-.57,3-1,4.09.41.7.9-.28,1.42-.89,1.94h0A8,8,0,0,0,123,150.48Z"/><path class="cls-36" d="M96,183.48c-.23,2.73-.54,5.42-4,6C93.13,187.32,93.29,184.54,96,183.48Z"/><path class="cls-65" d="M103,174.48a6.42,6.42,0,0,1-3,3A2.83,2.83,0,0,1,103,174.48Z"/><path class="cls-29" d="M63,249.48c3.41,2.3,5.17-2,8-2,8.11-4.78,16.8-8.39,25.32-12.35a3,3,0,0,1,3.68.36c-.11.85-.35,1.85-1.22,2-4.08.65-6.11,3.92-9,6.31a95,95,0,0,1-18,12.14c-3.24,1.64-5.38,5.45-9.83,4.56-.47-3.09.74-6,1-9Z"/><path class="cls-30" d="M63,275.48a9.52,9.52,0,0,1-2-6h1C63.21,271.34,63.05,273.42,63,275.48Z"/><path class="cls-30" d="M29.82,276.14c.62-1,1.7-1.78,2.41-1.1,1.05,1-.23,1.24-1,1.36A4.44,4.44,0,0,1,29.82,276.14Z"/><path class="cls-35" d="M67,232.48a22.19,22.19,0,0,1-2,9C65.26,238.38,64.14,235,67,232.48Z"/><path class="cls-66" d="M1.15,137.49C4.63,136.55,7,134.76,8,130.9c.6-2.38,1.64-5.24,5-5.42a2,2,0,0,1,.58,1.92A10.25,10.25,0,0,1,11,131.48h0c-1.44,1.36-1.31,3.34-2,5v1c.18,2.15-1.69,5.09.51,6.26,2,1.07,3.72-1.78,5.12-3.16,5.51-5.44,11.66-10.21,16.83-16,3.31-3.71,7.65-6.12,11.54-9.1,3.4-1.39,6.09-3.69,8.79-6.17,4.54-4.16,9.45-7.91,14.21-11.83,1.4,3.34-1.14,5.54-2.93,7.21C57.84,109.59,53,115,46.7,118.79c-4.14,2.52-6.49,6.94-9.8,10.35-8.94,7.67-17.15,16.11-25.72,24.17-4.7,4.41-7.11,4.1-10-1.76Z"/><path class="cls-7" d="M1.16,151.55c4.79,4.69,4.62,4.51,9.73-.17,7.31-6.7,14.76-13.23,21.44-20.58,1-1,2.45-1.56,3.7-2.32,4.14-1.79,6-6,9.56-8.57,7.08-5.13,13.07-11.54,19.61-17.3,1-.87,1.9-1.93,3.46-1.54,1.64,2.22-.21,3.5-1.29,5.06-.93,1.36-3.36,1.93-2.35,4.35-9.95,8.13-18.86,17.36-27.93,26.42-1.28,1.27-2.7,2.39-4.06,3.58-.61-1.88-1.39-2.75-3-.67-2.9,3.84-5.76,7.71-9.71,10.61-2.39,1.76-4.45,4-7.33,5.06h0a18,18,0,0,1-5,5l-6.81,6Z"/><path class="cls-67" d="M26,69.53c.75,3.73-3.05,4.77-4.45,7.26C17.88,83.38,13.9,89.9,8.83,95.61c-1.84,2.08-1.91,4.92-3.42,7.11-1.06,1.53-1.45,4-4.29,2.81-2.87-9.94,4.06-16,9.23-22.6,2.09-2.66,4.63-5.29,5.81-8.23C18.19,69.67,21.49,68.84,26,69.53Z"/><path class="cls-68" d="M13,155.48c1.14-2.13,3.26-3.18,5-4.7,3.53-3.15,7.37-6,9.81-10.3a8.29,8.29,0,0,1,6.56-4.64c.75,2-1.73,2.91-1.34,4.64l-12,14c-1.34-1.52-2.68-1-3.54.34C16.16,157,14.68,156.37,13,155.48Z"/><path class="cls-68" d="M8,160.48a15.41,15.41,0,0,1,5-5A5.92,5.92,0,0,1,8,160.48Z"/><path class="cls-9" d="M110.2,30.43c0-1-.07-2-.1-3l1.56-1.06C112.45,28.19,111.8,29.48,110.2,30.43Z"/><path class="cls-18" d="M130.65,76.57c-.6,1.19-2.13,1.2-2.39.59-.43-1,1-.62,1.6-1C130,76.13,130.37,76.43,130.65,76.57Z"/><path class="cls-7" d="M99,79.48l-6,0c-.84-1.88.19-3.36,1.43-4.37,4.09-3.32,7.6-7.41,12.55-9.6.94-1.34,0-2.67,0-4a8.16,8.16,0,0,1,7,3c-5.25,3.72-8.62,9.6-14.46,12.7C99.11,77.43,99.2,78.69,99,79.48Z"/><path class="cls-69" d="M43,115.48c-6.89,6.58-13.52,13.46-20.79,19.59-3,2.51-4.76,6-8.4,8.1-2.06,1.18-4.18,3.64-6.06,2.42s-.53-4.28.24-6.46a9.49,9.49,0,0,1,1-1.65c.52.83,1.41,2.19,2.15,1,4-6.24,10.35-10.23,15.78-14.63,9.77-7.91,18-17.4,27.8-25.14,7.58-6,13.95-13.21,21.28-19.42,6.87-5.81,13.68-11.68,20.58-17.45.54-.45,1.6-.28,2.41-.39,0,2.1-1.62,3.22-3,4.4C85.86,74.92,75.36,83.66,65.43,93c-6.58,6.17-12.76,12.75-19.8,18.43C44.36,112.45,43,113.58,43,115.48Z"/><path class="cls-49" d="M13,127.48v-2c2.05-.55,1.59-3,3-4,5.58-1.67,9.1-6.14,12.88-10,5.55-5.7,12.34-10,17.53-16.1A3,3,0,0,1,50,94.48c4.91-.47,7.17-4.81,10.6-7.4,4.91-3.71,8.15-9.52,14.4-11.6C70.64,81.09,65,85.36,59.67,90c-9.3,8.21-18.08,17-27.24,25.3-5.49,5-11.21,9.68-16.17,15.24-.89,1-2.39,2.66-4.23.93C10.84,129.76,12.46,128.75,13,127.48Z"/><path class="cls-69" d="M9,136.48c0-1.93-.3-4,2-5C10.6,133.24,10.38,135.08,9,136.48Z"/><path class="cls-69" d="M13,127.48c-.33,1.33-.67,2.66-1,4H11C10.94,129.77,11.23,128.25,13,127.48Z"/><path class="cls-50" d="M69,101.48c-5.64,4.4-11.32,8.67-16.21,14C48.73,120,43.17,123,39.31,127.93c-.51.64-2.16.39-3.28.55,3.8-4.47,7.49-8.82,12.34-12.5,6.76-5.1,14.2-10,17.66-18.5l1-1c2.87.37,4.67-.52,6.32-3.29C77,87,83.34,85.39,89,88.47c-5.89,3.2-10.08,8.6-15.66,12.2C72,101.55,70.79,102.87,69,101.48Z"/><path class="cls-70" d="M107,65.48c-2.49,3.76-6.47,5.89-9.78,8.74a15,15,0,0,0-4.2,5.23l-4,0c-.33-1-.67-2-1-3,6.54-3.78,11.88-9,17.35-14.22C106.6,62.94,105.6,64.86,107,65.48Z"/><path class="cls-71" d="M50,94.48c-4.53,2-6.93,6.42-10.65,9.4-7.35,5.9-14.14,12.51-21.11,18.88-2.33,2.14-2.21.38-2.24-1.28,2.25-2.84,2.51-7,6-9,.36,2.44,1.43,1.11,2.15.32,4.59-5.06,10.84-8.28,14.76-14.26,1.73-2.65,5.33-4.66,9.09-5,.54-.58.87-1.59,2-1Z"/><path class="cls-54" d="M59,82.48c-.73-1-3.91-1.28-.67-3.43,2.81-1.87,4.93-4.77,8.43-5.67,1-.25,2-.76,1.73-1.95s-1.56-.84-2.48-1c3.81-3.11,8.47-4.4,13-6,1.39.18,1.84.77.54,1.7C72.83,71,68.24,78.22,61,82.48A1.34,1.34,0,0,1,59,82.48Z"/><path class="cls-71" d="M59,82.48h2c-2.64,3.76-5.56,7.23-10,9-.63-1.32.51-2,1-3C53.4,85.35,56.78,84.58,59,82.48Z"/><path class="cls-54" d="M52,88.48c-.33,1-.67,2-1,3l-1,1-2,1C43.81,87.37,50.48,90,52,88.48Z"/><path class="cls-71" d="M26,105.48c.22,2.4-1,4-3,5C23.27,108.35,24.72,107,26,105.48Z"/><path class="cls-72" d="M69,101.48c4.2-2,8.24-4.48,11.12-8,2.49-3,5.15-4.71,8.88-5h1c1.29.19,2.58.41,3.35,1.77-1.73,2.24-4.92,2.68-6.35,5.23a114.12,114.12,0,0,0-22,15c-2.67-.49-1.68-1.76-.55-2.9C66.29,105.76,68.11,104,69,101.48Z"/><path class="cls-12" d="M83,114.48c-.4.88-.55,2.21-1.23,2.58-7.46,4.12-11.14,12.53-18.77,16.42-.08-.79-.54-1.87-.19-2.33C68.25,124,73.94,117.17,83,114.48Z"/><path class="cls-12" d="M89,105.48a15,15,0,0,1-6,7C82.3,105.89,82.61,105.53,89,105.48Z"/><path class="cls-73" d="M94,120.41c-1-.46-2-1.15-3-.06-.88.67-1.62,1.69-3,1.13,0-.32,0-.65,0-1-.29-.23-.38-.47-.27-.69s.2-.33.3-.33c.33-.34.67-.67,1-1a33.69,33.69,0,0,1,8.87.9c4.16.92,7.84.33,9.49-4.53a6.47,6.47,0,0,1,3.86-4.29c5.45-2.08,7.49-5.57,6.84-11.25,1.67-.79,2.71.5,3.93,1.19h0a5.07,5.07,0,0,1,1,7.05,52.49,52.49,0,0,1-15,15.54c-2.81,2-6.6-.48-9.92-1A7.46,7.46,0,0,1,94,120.41Z"/><path class="cls-33" d="M67,141.48c-1.33,3.34-4,5.36-7,7C60.45,142.21,61.57,141.09,67,141.48Z"/><path class="cls-54" d="M88,119.48l0,1c-1.18.52-2.3,1.25-3.82.57C86.12,121.86,84.5,115.5,88,119.48Z"/><path class="cls-12" d="M58.44,147c-1.45,1.19-2.52,1.14-3.51.25-.51-.47-.13-1,.3-1.21C56.49,145.31,57.38,146.12,58.44,147Z"/><path class="cls-74" d="M108,101.48c1.2.17,3.15-.39,3,1.41-.06,1-2,.42-3,.59C108,102.81,108,102.15,108,101.48Z"/><path class="cls-12" d="M65,136.52a5,5,0,0,1,1.75-.39,1,1,0,0,1,.87,1.43c-.07.17-.88.17-1.3.05S64.93,137.72,65,136.52Z"/><path class="cls-75" d="M111.83,147.41c2.08-2.74,3.24-5.61,1.27-8.92-3.93-8.79-3.45-11.63,3.9-17.3,4.26-3.3,7.58-7.91,13-9.65a3.17,3.17,0,0,1,3,1.06l0,0a4.91,4.91,0,0,1,3,3.18.67.67,0,0,0,.14.75c1.09,1.41,2,2.88,1.48,4.78-2.75,2.66-6.1,3.36-9.78,2.91,1.24,4.52-1.85,6.68-4.92,8.69-2,1.33-2.3,5.9-7,3,1.6,2,2.39,3.38,1.85,5.16C116.2,143.52,117,148.23,111.83,147.41Z"/><path class="cls-38" d="M117,140.48c-.07-.66.07-1.73-.24-1.89-1.89-1-4.05-2.22-2.19-4.3,2-2.29,2.46,1.85,4.6,1.79.35-2.64,2-4.08,4.66-5.31,3.55-1.67,3.69-5.37.85-8.26,4.44,1.87,8.35-.45,12.48-1.08,2.71.91,1.91,3.57,2.72,5.43l.09,2.72c0,.31,0,.62-.05.93-3,2.58-7.09,3.58-10,6.19-2.51,2.28-5.49,3.66-8.17,5.56C119.29,144.05,118.55,143.65,117,140.48Z"/><path class="cls-2" d="M100,235.48c-5.85,1.23-10.94,4.38-16.18,7a72.68,72.68,0,0,1-12.82,5c1.65-3.17,4.27-5.28,7.26-7.19,7.62-4.85,14.6-10.74,22.25-15.43,8-4.88,14.54-11.46,22.4-16.35,3.17-2,3.36-6.56,7.09-8-2.93,7.51-5.73,15.09-10,22-5.32,4.08-10.67,8.13-17,10.55A4.63,4.63,0,0,0,100,235.48Z"/><path class="cls-76" d="M117,140.48c.79,1.47,2.67,2.85,3.45,1.47,1.79-3.17,6.29-2.16,7.69-5.75.44-1.14,2.28-1.94,3.64-2.46,2.87-1.08,6-1.72,5.81-5.5,2.28,0-1.3,3.75,2.33,2.27a6.38,6.38,0,0,1-2,6.23c-4,3.56-7.95,7.16-11.92,10.74.67-1.57-.18-2.66-1.46-1.79-2.82,1.91-6.17,2.72-8.61,5.59-4,4.71-8.79,8.73-13.21,13.07-.81.79-1.15.09-1.44-.36-.92-1.42-2-1.5-2.48.08-1.21,3.77-5.19,4.49-7.46,7.06-.31.36-1,.84-1.25.73C84,169.39,80.5,176,79.9,178.11c-1.3,4.65-3.46,5.56-7.28,7.15-2,.83-4.07,3.27-6.67,4.19,13.37-13.51,26.8-27,40.05-40.59,1.88-1.93,4.25.35,5.83-1.45C115.86,146.82,114.83,142.44,117,140.48Z"/><path class="cls-76" d="M110,165.48c1.07-3.78,4.28-5.68,7-8-.55,3.75-4.58,4.9-6,8Z"/><path class="cls-76" d="M117,157.48a7.93,7.93,0,0,1,6-6A21.83,21.83,0,0,1,117,157.48Z"/><path class="cls-76" d="M123,150.48a2.83,2.83,0,0,1,3-3A6.38,6.38,0,0,1,123,150.48Z"/><path d="M233.87,154.33h30.66c12.4,0,20.8,4,20.8,16.15,0,6.57-3,10.76-8.85,13.59,8,2.28,11.95,8.4,11.95,16.52,0,13.23-11.22,18.89-23,18.89H233.87Zm14.32,26.37H262.7c5.11,0,8.76-2.28,8.76-7.76,0-6.11-4.74-7.48-9.85-7.48H248.19Zm0,27.64h15.33c5.57,0,10.59-1.82,10.59-8.57s-4.11-9.31-10.31-9.31H248.19Z"/><path d="M298.11,154.33h14.32v65.15H298.11Z"/><path d="M341.54,166.37H320.83v-12H376.4v12H355.87v53H341.54Z"/><path d="M449.4,195.39l18.24,24.18H450.13L433.7,196.12h-7v23.45H412.26V154.33h29.38c16.42,0,22.72,10.31,22.72,20.89,0,8.85-4.65,17.8-15.51,20.17Zm-22.73-29.93v19.62h11.14c6.84,0,12.5-1.55,12.5-9.86,0-8.48-5.66-9.76-12.5-9.76Z"/><path d="M490.37,193.47v13.87h36.77v12H476.5V154.05H524v12H490.37v14.69h29.74v12.68Z"/><path d="M547,200.13c1.46,8.58,9.13,9.77,14.42,9.77,5,0,12.68-1.46,12.68-8.12,0-13.87-38.78-4.93-38.78-29.3,0-13.41,12.59-19.7,24.36-19.7,13.6,0,26.1,5.93,26.1,21l-13.87-2c-1.73-7.57-8.39-7.84-12.86-7.84s-9.86,1.91-9.86,7.39c0,4.83,3.1,5.93,19.44,9.85,4.83,1.19,19.34,4.2,19.34,19,0,12-9.31,20.9-27.1,20.9-14.6,0-27.74-7.12-27.74-23.18Z"/><path d="M608.71,193.47v13.87h36.78v12H594.84V154.05h47.54v12H608.71v14.69h29.75v12.68Z"/><path d="M692.75,195.39,711,219.57H693.48l-16.42-23.45h-7v23.45H655.62V154.33H685c16.42,0,22.72,10.31,22.72,20.89,0,8.85-4.65,17.8-15.51,20.17ZM670,165.46v19.62h11.14c6.84,0,12.5-1.55,12.5-9.86,0-8.48-5.66-9.76-12.5-9.76Z"/><path d="M752.34,219.48H736.19L715,154.33H729.8l14.51,45.8h.18l14.69-45.8H774Z"/><path d="M769.13,219.48l29.56-65.06h14.42l29.11,65.06H828.35L822,205.06H789l-6.84,14.42Zm37-52.84-11,25.19h21.63l-10.58-25.19Z"/><path d="M858.73,200.13c1.46,8.58,9.13,9.77,14.42,9.77,5,0,12.69-1.46,12.69-8.12,0-13.87-38.78-4.93-38.78-29.3,0-13.41,12.59-19.7,24.36-19.7,13.59,0,26.1,5.93,26.1,21l-13.87-2c-1.74-7.57-8.4-7.84-12.87-7.84s-9.86,1.91-9.86,7.39c0,4.83,3.11,5.93,19.44,9.85,4.84,1.19,19.35,4.2,19.35,19,0,12-9.31,20.9-27.11,20.9-14.6,0-27.73-7.12-27.73-23.18Z"/></g></g></svg>